<?xml version="1.0" encoding="UTF-8" standalone="no"?>
<!DOCTYPE svg PUBLIC "-//W3C//DTD SVG 1.1//EN"
 "http://www.w3.org/Graphics/SVG/1.1/DTD/svg11.dtd">
<!-- Generated by graphviz version 2.50.0 (0)
 -->
<!-- Pages: 1 -->
<svg width="564pt" height="305pt"
 viewBox="0.00 0.00 563.75 305.00" xmlns="http://www.w3.org/2000/svg" xmlns:xlink="http://www.w3.org/1999/xlink">
<g id="graph0" class="graph" transform="scale(1 1) rotate(0) translate(4 301)">
<polygon fill="white" stroke="transparent" points="-4,4 -4,-301 559.75,-301 559.75,4 -4,4"/>
<!-- albums -->
<g id="node1" class="node">
<title>albums</title>
<ellipse fill="none" stroke="black" cx="472.75" cy="-105" rx="36.29" ry="18"/>
<text text-anchor="middle" x="472.75" y="-101.3" font-family="Times New Roman,serif" font-size="14.00">albums</text>
</g>
<!-- artists -->
<g id="node2" class="node">
<title>artists</title>
<ellipse fill="none" stroke="black" cx="472.75" cy="-18" rx="31.7" ry="18"/>
<text text-anchor="middle" x="472.75" y="-14.3" font-family="Times New Roman,serif" font-size="14.00">artists</text>
</g>
<!-- albums&#45;&gt;artists -->
<g id="edge1" class="edge">
<title>albums&#45;&gt;artists</title>
<path fill="none" stroke="black" d="M472.75,-86.8C472.75,-75.16 472.75,-59.55 472.75,-46.24"/>
<polygon fill="black" stroke="black" points="476.25,-46.18 472.75,-36.18 469.25,-46.18 476.25,-46.18"/>
<text text-anchor="middle" x="512.25" y="-57.8" font-family="Times New Roman,serif" font-size="14.00">artists.ArtistId</text>
</g>
<!-- customers -->
<g id="node3" class="node">
<title>customers</title>
<ellipse fill="none" stroke="black" cx="48.75" cy="-105" rx="46.59" ry="18"/>
<text text-anchor="middle" x="48.75" y="-101.3" font-family="Times New Roman,serif" font-size="14.00">customers</text>
</g>
<!-- employees -->
<g id="node4" class="node">
<title>employees</title>
<ellipse fill="none" stroke="black" cx="48.75" cy="-18" rx="48.99" ry="18"/>
<text text-anchor="middle" x="48.75" y="-14.3" font-family="Times New Roman,serif" font-size="14.00">employees</text>
</g>
<!-- customers&#45;&gt;employees -->
<g id="edge2" class="edge">
<title>customers&#45;&gt;employees</title>
<path fill="none" stroke="black" d="M48.75,-86.8C48.75,-75.16 48.75,-59.55 48.75,-46.24"/>
<polygon fill="black" stroke="black" points="52.25,-46.18 48.75,-36.18 45.25,-46.18 52.25,-46.18"/>
<text text-anchor="middle" x="113.75" y="-57.8" font-family="Times New Roman,serif" font-size="14.00">employees.EmployeeId</text>
</g>
<!-- employees&#45;&gt;employees -->
<g id="edge3" class="edge">
<title>employees&#45;&gt;employees</title>
<path fill="none" stroke="black" d="M92.72,-25.85C105.55,-25.58 115.49,-22.96 115.49,-18 115.49,-14.43 110.36,-12.08 102.7,-10.93"/>
<polygon fill="black" stroke="black" points="102.96,-7.44 92.72,-10.15 102.41,-14.42 102.96,-7.44"/>
<text text-anchor="middle" x="180.49" y="-14.3" font-family="Times New Roman,serif" font-size="14.00">employees.EmployeeId</text>
</g>
<!-- genres -->
<g id="node5" class="node">
<title>genres</title>
<ellipse fill="none" stroke="black" cx="194.75" cy="-105" rx="33.6" ry="18"/>
<text text-anchor="middle" x="194.75" y="-101.3" font-family="Times New Roman,serif" font-size="14.00">genres</text>
</g>
<!-- invoice_items -->
<g id="node6" class="node">
<title>invoice_items</title>
<ellipse fill="none" stroke="black" cx="157.75" cy="-279" rx="60.39" ry="18"/>
<text text-anchor="middle" x="157.75" y="-275.3" font-family="Times New Roman,serif" font-size="14.00">invoice_items</text>
</g>
<!-- tracks -->
<g id="node7" class="node">
<title>tracks</title>
<ellipse fill="none" stroke="black" cx="300.75" cy="-192" rx="31.7" ry="18"/>
<text text-anchor="middle" x="300.75" y="-188.3" font-family="Times New Roman,serif" font-size="14.00">tracks</text>
</g>
<!-- invoice_items&#45;&gt;tracks -->
<g id="edge4" class="edge">
<title>invoice_items&#45;&gt;tracks</title>
<path fill="none" stroke="black" d="M173.88,-261.58C184.93,-250.99 200.34,-237.47 215.75,-228 230.69,-218.82 248.47,-211.07 263.9,-205.21"/>
<polygon fill="black" stroke="black" points="265.46,-208.37 273.65,-201.64 263.05,-201.79 265.46,-208.37"/>
<text text-anchor="middle" x="255.25" y="-231.8" font-family="Times New Roman,serif" font-size="14.00">tracks.TrackId</text>
</g>
<!-- invoices -->
<g id="node9" class="node">
<title>invoices</title>
<ellipse fill="none" stroke="black" cx="62.75" cy="-192" rx="40.09" ry="18"/>
<text text-anchor="middle" x="62.75" y="-188.3" font-family="Times New Roman,serif" font-size="14.00">invoices</text>
</g>
<!-- invoice_items&#45;&gt;invoices -->
<g id="edge5" class="edge">
<title>invoice_items&#45;&gt;invoices</title>
<path fill="none" stroke="black" d="M110.85,-267.38C97.13,-262.14 83.27,-254.39 73.75,-243 68.37,-236.57 65.47,-228.11 63.94,-219.97"/>
<polygon fill="black" stroke="black" points="67.4,-219.49 62.65,-210.02 60.46,-220.38 67.4,-219.49"/>
<text text-anchor="middle" x="124.25" y="-231.8" font-family="Times New Roman,serif" font-size="14.00">invoices.InvoiceId</text>
</g>
<!-- tracks&#45;&gt;albums -->
<g id="edge6" class="edge">
<title>tracks&#45;&gt;albums</title>
<path fill="none" stroke="black" d="M327.25,-181.77C335.65,-179.04 345.03,-176.2 353.75,-174 396.26,-163.28 416.37,-183.22 450.75,-156 458.01,-150.24 462.94,-141.59 466.25,-133.1"/>
<polygon fill="black" stroke="black" points="469.65,-133.97 469.44,-123.38 463,-131.79 469.65,-133.97"/>
<text text-anchor="middle" x="508.75" y="-144.8" font-family="Times New Roman,serif" font-size="14.00">albums.AlbumId</text>
</g>
<!-- tracks&#45;&gt;genres -->
<g id="edge7" class="edge">
<title>tracks&#45;&gt;genres</title>
<path fill="none" stroke="black" d="M270.71,-185.34C252.14,-180.43 229.02,-171.57 213.75,-156 207.55,-149.68 203.34,-141.15 200.48,-132.91"/>
<polygon fill="black" stroke="black" points="203.81,-131.81 197.64,-123.19 197.09,-133.77 203.81,-131.81"/>
<text text-anchor="middle" x="255.75" y="-144.8" font-family="Times New Roman,serif" font-size="14.00">genres.GenreId</text>
</g>
<!-- media_types -->
<g id="node8" class="node">
<title>media_types</title>
<ellipse fill="none" stroke="black" cx="302.75" cy="-105" rx="55.79" ry="18"/>
<text text-anchor="middle" x="302.75" y="-101.3" font-family="Times New Roman,serif" font-size="14.00">media_types</text>
</g>
<!-- tracks&#45;&gt;media_types -->
<g id="edge8" class="edge">
<title>tracks&#45;&gt;media_types</title>
<path fill="none" stroke="black" d="M301.15,-173.8C301.42,-162.16 301.79,-146.55 302.1,-133.24"/>
<polygon fill="black" stroke="black" points="305.61,-133.26 302.34,-123.18 298.61,-133.09 305.61,-133.26"/>
<text text-anchor="middle" x="376.25" y="-144.8" font-family="Times New Roman,serif" font-size="14.00">media_types.MediaTypeId</text>
</g>
<!-- invoices&#45;&gt;customers -->
<g id="edge9" class="edge">
<title>invoices&#45;&gt;customers</title>
<path fill="none" stroke="black" d="M55.22,-174.24C53.03,-168.56 50.91,-162.11 49.75,-156 48.37,-148.78 47.8,-140.87 47.65,-133.51"/>
<polygon fill="black" stroke="black" points="51.15,-133.28 47.68,-123.27 44.15,-133.26 51.15,-133.28"/>
<text text-anchor="middle" x="111.75" y="-144.8" font-family="Times New Roman,serif" font-size="14.00">customers.CustomerId</text>
</g>
<!-- playlist_track -->
<g id="node10" class="node">
<title>playlist_track</title>
<ellipse fill="none" stroke="black" cx="338.75" cy="-279" rx="58.49" ry="18"/>
<text text-anchor="middle" x="338.75" y="-275.3" font-family="Times New Roman,serif" font-size="14.00">playlist_track</text>
</g>
<!-- playlist_track&#45;&gt;tracks -->
<g id="edge10" class="edge">
<title>playlist_track&#45;&gt;tracks</title>
<path fill="none" stroke="black" d="M316.31,-262.12C310.49,-256.76 304.97,-250.28 301.75,-243 298.69,-236.09 297.59,-228.11 297.48,-220.57"/>
<polygon fill="black" stroke="black" points="300.99,-220.5 297.87,-210.38 293.99,-220.24 300.99,-220.5"/>
<text text-anchor="middle" x="341.25" y="-231.8" font-family="Times New Roman,serif" font-size="14.00">tracks.TrackId</text>
</g>
<!-- playlists -->
<g id="node11" class="node">
<title>playlists</title>
<ellipse fill="none" stroke="black" cx="402.75" cy="-192" rx="40.09" ry="18"/>
<text text-anchor="middle" x="402.75" y="-188.3" font-family="Times New Roman,serif" font-size="14.00">playlists</text>
</g>
<!-- playlist_track&#45;&gt;playlists -->
<g id="edge11" class="edge">
<title>playlist_track&#45;&gt;playlists</title>
<path fill="none" stroke="black" d="M361.47,-262.25C368.29,-256.74 375.38,-250.13 380.75,-243 386.02,-236 390.35,-227.53 393.73,-219.58"/>
<polygon fill="black" stroke="black" points="397,-220.84 397.39,-210.26 390.48,-218.29 397,-220.84"/>
<text text-anchor="middle" x="439.25" y="-231.8" font-family="Times New Roman,serif" font-size="14.00">playlists.PlaylistId</text>
</g>
</g>
</svg>
